<?xml version="1.0" encoding="UTF-8"?>
<svg id="Layer_2" data-name="Layer 2" xmlns="http://www.w3.org/2000/svg" viewBox="0 0 104.43 180.33">
  <defs>
    <style>
      .cls-1 {
        fill: #417fc2;
      }

      .cls-2 {
        fill: #ee5755;
      }
    </style>
  </defs>
  <g id="Layer_1-2" data-name="Layer 1">
    <g>
      <g>
        <path class="cls-1" d="m21.23,157.73c-.79.61-1.45,1.34-1.99,2.2-.54.86-.99,1.85-1.33,2.98-.35,1.13-.6,2.39-.75,3.79-.15,1.4-.23,2.93-.23,4.6h-4.84c0-2.44.17-4.59.51-6.44.34-1.85.85-3.46,1.53-4.82s1.52-2.5,2.53-3.43c1.01-.93,2.19-1.69,3.54-2.27l-1.85-6.07h4.9l6.98,23.04h-4.89l-4.12-13.57Z"/>
        <path class="cls-1" d="m42.57,161.65h-1.98c-.77,1.42-1.39,2.91-1.88,4.47s-.84,3.28-1.06,5.18h-4.86c.24-1.54.54-2.96.88-4.26.34-1.29.76-2.52,1.24-3.68.48-1.16,1.05-2.28,1.7-3.37.65-1.09,1.4-2.19,2.26-3.31h-4.04l3.12-4.85h-3.02c.02-.26.03-.45.04-.58s0-.24,0-.35c0-.62-.06-1.2-.18-1.75s-.32-1.11-.62-1.68l4.23-1.7c.2.39.38.74.51,1.06.14.31.26.61.35.88s.18.53.24.77c.06.24.11.48.15.72h5.01l-3.17,4.88h4.61c-.81.92-1.52,1.76-2.13,2.52s-1.18,1.52-1.7,2.27h4.46l3.06,12.42h-4.86l-2.39-9.64Z"/>
        <path class="cls-1" d="m63.25,151.92c-1.15,0-2.17.07-3.06.2-.89.13-1.63.4-2.24.8s-1.06.97-1.37,1.69c-.31.73-.47,1.68-.47,2.87,0,.24,0,.48.02.73,0,.25.03.52.05.8h7.15v12.28h-4.84v-9.52h-6.88c-.11-.71-.19-1.35-.24-1.92s-.07-1.13-.07-1.68c0-1.37.15-2.55.44-3.53.3-.98.72-1.81,1.26-2.48.55-.67,1.21-1.2,1.98-1.6s1.64-.7,2.6-.91c.96-.21,2-.35,3.13-.42s2.32-.1,3.56-.1h3.69c-.02.28-.03.48-.04.62s0,.25,0,.34c0,.6.06,1.19.18,1.78.12.59.32,1.17.62,1.74l-4.23,1.7c-.21-.39-.38-.74-.51-1.06-.14-.31-.26-.6-.35-.87-.1-.27-.18-.52-.24-.76-.06-.24-.11-.47-.15-.71Z"/>
        <path class="cls-1" d="m89.23,162.86c-.41-.75-.7-1.4-.87-1.93s-.3-1.04-.38-1.5h-3.05v11.87h-4.84v-11.87h-3.11c-.04.24-.09.47-.15.71-.06.24-.13.49-.22.76-.09.27-.21.57-.35.88-.14.31-.32.67-.54,1.07l-4.23-1.68c.3-.59.5-1.17.62-1.76.12-.59.18-1.18.18-1.78,0-.09,0-.2,0-.33s-.02-.33-.04-.6h7.84v-4.9h-6.75c.02-.27.03-.47.04-.6s0-.24,0-.32c0-.62-.06-1.22-.18-1.81s-.32-1.16-.62-1.73l4.23-1.7c.2.39.38.74.51,1.06.14.31.25.61.35.88.1.27.18.53.24.77.06.24.11.48.15.72h6.86v7.63h7.78c-.02.27-.03.47-.04.6s0,.24,0,.32c0,.6.06,1.19.18,1.78.12.59.32,1.17.62,1.76l-4.23,1.68Z"/>
      </g>
      <g>
        <path class="cls-1" d="m66.21,39.73c1.09-.46,1.7-1.56,1.76-2.6-.07-.78-.04-1.78.76-2.29,1.35-.96,2.03-2.77,1.67-4.36-.05-.29-.2-.56-.25-.86-.13-.59.11-1.18.42-1.68.87-1.61.13-3.72-1.57-4.37-.41-.15-.77-.43-1.01-.79-.36-.53-.42-1.21-.23-1.81.03-.12.05-.24.07-.36.25-.22.15-.48.12-.71-.16-.98-1.34-2.01-2.16-1.62,0,0-.52-1.5-.52-1.5.75-.5.27-1.91-.76-2.13-.87-.26-2.03-.11-2.74-1.02-.45-.48-.64-1.18-.65-1.81-.13-.72-.65-1.36-1.39-1.56-1.17-.42-2.41.39-3.62-.08-.85-.27-1.66-1.03-1.93-2.01-.16-.43-.45-.79-.82-1.05-.73-.54-1.91-.45-2.85.04-1.42.61-3.3.17-4.23-1.13-.16-.16-.51-.28-.77-.29-.57-.05-1.46.46-2.06.76-1.32.53-2.87.35-4.03-.71-.77-.73-1.47-.78-2.13-.61-.44.12-.8.42-1.11.73-1.07.97-2.66,1.25-4,.74-.29-.1-.54-.27-.83-.37-.93-.32-1.96.14-2.32,1.06-.4,1.25-1.5,2.37-2.87,2.69-.46.13-.91.09-1.37.16-.67.12-1.54.7-1.92,1.4-.08.11-.13.26-.18.38-.47,1.4-1.6,2.5-3.16,2.8-.75.15-1.54.02-2.25-.24-1.33-.35-2.33.92-2.26,2.25.27,1.8-.91,3.68-2.65,4.2-1.03.22-1.92.46-2.32,1.52-.13.33-.17.72-.14,1.08.37,1.63-.58,3.68-2.35,4.23-.77.53-.55,1.61-.45,2.6.17,1.35-.51,2.76-1.74,3.42-.8.36-1.23,1.21-.9,2.07.29.57.55,1.16.55,1.82.05.77-.28,1.67-.78,2.25-.65.87-.66,2.58.08,3.55.45.5.89,1.12.98,1.8.14.74-.03,1.56-.42,2.19-.42.82-.23,1.86.5,2.43.29.26.67.37.98.61.82.54,1.41,1.78,1.18,2.83-.02.17-.07.41-.05.59.01,1.12.68,2.06,1.74,2.44.11.03.36.11.48.13,1.27.25,2.18,1.58,2.05,2.81-.12.8.48,1.53,1.28,1.61.13.03.29.02.42.06.79.16,1.51.76,1.81,1.51.54.92,1.53.62,2.53.77.69.15,1.28.65,1.55,1.26.24.57.05.34.31.6.13.09.19.1.7.08.95-.11,1.88.66,2.13,1.52.14.41.38.77.77.94,1.38.5,3.26-.31,4.79.52.59.29.83.74,1.3.86.05,0,.1-.02.32-.21.44-.37,1.08-.22,1.52-.06,1.7.66,2.24-1.64,3.39-2.48.34-.27.79-.44,1.22-.41.69.11,1.94.37,1.94-.66.12.43-.32.79-.71.88-.42.09-.84-.02-1.23,0-1.83.19-1.76,2.58-3.4,3.32-.44.23-1.04.18-1.42.06-.42-.11-.7-.14-.81,0-.08.07-.34.36-.7.42-.36.06-.66-.07-.88-.19-1.05-.8-1.76-.94-3.13-.71-1.58.3-3.65.24-4.39-1.69-.11-.19-.09-.22-.2-.33-.35-.29-.61-.03-1.14-.08-.67-.02-1.32-.37-1.71-.91-.2-.25-.35-.7-.35-.66-.31-.4-.57-.07-1.39-.15-1.16-.02-2.46-.68-3.01-1.82-.06-.1-.1-.14-.21-.18-2.04,0-3.89-1.72-3.84-3.81,0,0,0-.21,0-.21v-.03c-.02-.07-.06-.09-.08-.09-2.95-.24-5.11-3.5-4.63-6.17,0,.11.05.16.02.17-2.68-1.03-4.04-4.33-2.88-6.96.05-.14.12-.27.18-.41,0-.03-.03.04-.03.06-.08.15.01.38.09.47-.56-.55-1.02-1.23-1.34-1.93-.94-2.15-.84-4.78.63-6.85,0-.02-.06.08-.08.12-.09.19-.09.33-.03.5-1.67-2.53-.66-6.54,2.19-7.97-.15.07-.26.19-.34.3-.11.17-.15.34-.14.53.01.07,0-.03-.02-.08-.18-1.02-.3-2.12-.04-3.42.34-1.7,1.59-3.32,3.27-3.96-.41.1-.8.68-.72.99.02.14-.03-.14-.05-.26-.74-3.71,2.28-7.44,5.46-7.96-.49.12-.83.75-.78,1.21-.72-4.78,3.5-9.35,8.42-8.24.28.05.66.17.91.25-.62-.27-1.5.05-1.75.6-.03.04-.04.08-.06.13-.01.03-.05.14,0,.02.96-2.78,3.25-4.93,6.26-5.52.44-.09.95-.11,1.4-.13-.59-.02-1.24.46-1.39.96,0,0,.15-.37.15-.37,1.53-3.91,6.58-5.7,10.2-3.55.04,0,.12.07.15.09-.52-.31-1.28-.17-1.66.25,2.73-2.81,7.75-2.59,10.2.21-.45-.36-.87-.38-1.28-.16.23-.09.59-.31.87-.4,2.37-1.1,5.89-.66,7.48,1.76-.19-.21-.64-.48-.95-.27,0,0,.1-.04.1-.04,3.37-1.47,7.84.42,8.56,4.19-.11-.23-.28-.35-.44-.27-.08.03.2-.02.2,0,0,0,.38-.02.38-.02,2.88-.28,6.05,1.94,5.79,5.05-.02.04-.02.08,0,.13.1.14-.02.09.35.17,1.01.22,1.98.6,2.71,1.45,1.12,1.35,1.04,3.86-.82,4.51,0,0-.52-1.5-.52-1.5.81-.27,1.67-.08,2.3.3.94.55,1.61,1.59,1.59,2.69.03.35-.08.66.1,1.02-.01.27-.11.55-.15.81-.03.28.19.53.46.6,2.35.84,3.58,3.72,2.56,5.97-.12.46-.64.84-.52,1.31.72,2.12-.18,4.6-1.96,5.87-.4.25-.86.45-.94.98-.04.18-.02.56-.09.86-.24,1.25-1.22,2.31-2.38,2.51h0Z"/>
        <path class="cls-1" d="m58.77,67.47c2.34.14,4.13-1,3.91-3.48-.34-1.28-.11-2.18,1.37-2.15.24,0,.22,0,.3-.05.48-.64-.59-1.41-1.14-1.75,0,0-.51-.37-.51-.37.52-.45,1.23-.93,1.68-1.35.34-.31.51-.69.42-.81-.16-.31-.53-.39-.94-.58-.68-.22-1.32-1.18-.94-1.91.48-.95,1.31-1.34,2.14-1.61.28-.13.6-.23.52-.54-1.74-2.23-3.26-4.72-4.17-7.43-.45-1.45-.93-3.28.06-4.62.34-.42.84-.66,1.35-.78-4.15,1.54.55,8.35,2.1,10.58.48.76,1.07,1.12,1.51,1.93.37.75-.35,1.56-1.01,1.77-.61.2-1.3.63-1.51,1.11-.04.13-.04.16.02.25.08.11.16.18.38.27,1.49.44,2.21,1.88.75,3.12-.44.39-.89.66-1.28.97l-.02-.77c.99.69,2.34,1.82,1.39,3.24-.41.57-1.17.4-1.61.49-.11-.1-.44.49-.49,1.02-.14,2.68-1.57,4.05-4.28,3.47h0Z"/>
      </g>
      <path class="cls-1" d="m39.07,68.53c-.36,3.74-1.95,7.65-4.95,10.19-2.77,2.39-7.17,3.26-9.9,4.96-3.89,2.45-3.94,6.73-4.52,11.1-.82,7.15-1.31,14.35-1.4,21.54.04,4.35-.23,9.39.42,13.6,1.47,3.54,6.12,2.84,9.84,2.97,5.14.01,10.22,1.43,14.94,3.15,1.92.65,4.94,1.86,6.85,2.36,2.25.57,4.73.6,7.2.69-3.51,1.03-7.55,1.43-11.2.61,0,0-3.65-.61-3.65-.61-4.83-.9-9.43-1.6-13.97-1.15-2.29.17-4.95.64-8,.08-8.02-1.7-8.6-7.39-8.74-14.3-.3-7.48,0-14.98.97-22.4,1.36-7.41,1.26-17.65,9.31-21.35,3.78-1.71,7.13-1.5,10.44-3.27,3-1.77,5.05-4.87,6.38-8.16h0Z"/>
      <path class="cls-1" d="m62.93,63.14c.41,1.37,0,3.12-1.29,3.94-1.38.7-2.87.66-4.1,1.21-3.82,1.52-5.79,5.93-4.54,9.72,1.37,3.85,4.93,6.06,8.29,8.33,2.34,1.55,4.81,3,7.21,4.89,8.54,6.79,8.09,15.42-4.03,15.84,0,0-.28.02-.28.02h-.07c.65,0,1.48-.53,1.78-1.16.79-1.31-.35-3.03-1.47-3.16.07.01.32.06.4.07,12.99,2.18,28,6.69,34.48,19.36,6.66,13.04,7.29,29.05-.83,41.62-5.27,8.16-13.74,14.19-23.17,16.51,9.18-3.42,16.91-10.54,21.06-19.41,6.6-14.08,5.18-35.94-8.84-44.96-7.32-4.71-16.06-6.39-24.5-8.09-3.21-.99-2.64-5.84.75-6.03,1.52-.1,3.96-.26,5.05-.8.7-.31.64-.5.42-1.53-.59-2.03-1.99-3.52-3.55-5.04-4.07-3.86-9.32-6.86-12.77-11.66-3.98-5.14-2.13-13.3,4.33-15.28,1.44-.47,2.94-.33,4.17-.83,1.15-.6,1.75-2.18,1.5-3.56Z"/>
      <path class="cls-1" d="m33.35,125.15c.97.56,2.12.43,3.19.51,3.32.1,6.57-.2,9.92-.22,0,0-1.39.94-1.39.94-.25-2.47-3.32-4.12-4.87-6.24-2.12-2.44-3.89-5.17-5.27-8.09l2.76-.22c-1.86,3.13-8.24,10.06-4.34,13.32h0Zm0,0c-3.85-2.32,1.48-13.5,2.23-17.15,2.64,3.07,5.4,6.28,7.89,9.41,1.95,2.56,5.32,5.86,4.04,9.57,0,0-.45,1.21-.45,1.21l-.93-.27c-3.63-1.08-7.44-1.87-11.22-2.29-.54-.07-1.09-.18-1.55-.48h0Z"/>
      <path class="cls-1" d="m28.96,68.88c2.07,1.09,4.45-.04,5.03-2.15.26-.5.79-.85,1.36-.92.99.02,1.53-.22,1.84-.78.36-.71,1.17-1.08,1.92-1.04.28,0,.57.01.83-.06.88-.18,1.58-.79,1.93-1.59.21-.79.88-1.72,1.88-1.82.23-.04.48,0,.71-.02.81-.05,1.38-.71,1.55-1.47.34-.86,1.14-1.34,1.99-1.43,2.03-.52,1.96-2.97,1.27-4.55-.38-1.16.33-2.42,1.36-2.89.71-.44.92-1.3.97-2.1.15-.95.88-1.77,1.84-2,.5-.14.99-.02,1.42,0,.16.02.58-.32.54-.46,0,0,.18-1.19.18-1.19l.46-.15c.87-.28,1.59-1.26,1.86-2.35.15-.93.31-1.92,1.19-2.44.84-.59,1.94-.44,2.79-.03,1.03.31,2.31.14,3.38-.35.79-.37,1.46-.9,1.83-1.66.29-.64.48-1.4.99-2.02.47-.63,1.18-.82,1.6-1.3.52-.73.54-1.75.76-2.68,0,0,.42-2.04.42-2.04.74-3.35,1.3-4.74-1.72-7.2,3.42,2.06,3.08,3.79,2.64,7.35-.29,1.64-.13,3.91-1,5.36-.4.64-1.15.92-1.51,1.42-.34.5-.43,1.13-.7,1.75-1.2,2.67-4.39,3.88-7.21,3.22-.41-.08-1.11-.56-1.3.05-.11,1.19-.47,2.33-1.22,3.31-.51.68-1.23,1.28-2.11,1.59l.64-1.34c.64,2.01-1.39,3.62-3.22,3.24-.23-.04-.39.05-.45.29-.08.93-.34,1.87-.95,2.62-.31.41-.88.87-1.3,1.07-.17.11-.22.21-.19.35,1.23,2.77.17,6.69-3.22,7.04-.15.02-.28.13-.32.22-.45,1.6-2.12,2.68-3.77,2.43-.13,0-.32.11-.43.29-.55,1.67-2.33,2.99-4.13,2.83-.41-.06-.98-.09-1.22.32-.52.96-1.77,1.27-2.74,1.11-.59,0-.84.46-1.09.98-1.02,1.89-3.69,2.5-5.38,1.21h0Z"/>
      <path class="cls-2" d="m82.02,122.68c-.82-2.54-3.67-5.06-5.7-5.29-2.26-.26-4.6,1.13-5.46,3.23-1.98,4.81,3.03,9.11-.66,13.9-1.71,2.22-4.67,3.41-7.44,2.98,8.04,1.23,22.35,6.34,28.45-2.15,1.6-2.23,1.74-5.42.35-7.79-1.91-3.23-7.31-5.13-9.93-1.65.71-.95.76-2.09.39-3.23Z"/>
    </g>
  </g>
</svg>